HIERARCHY
ROOT RootJoint
{
    OFFSET   0.000000   0.000000   0.000000
    CHANNELS 6 Xposition Yposition Zposition Xrotation Yrotation Zrotation
    JOINT pelvis_lowerback
    {
        OFFSET   0.000000   0.093605   0.000000
        CHANNELS 3 Xrotation Yrotation Zrotation
        JOINT lowerback_torso
        {
            OFFSET   0.000000   0.100000   0.000000
            CHANNELS 3 Xrotation Yrotation Zrotation
            JOINT torso_head
            {
                OFFSET   0.000000   0.282350   0.000000
                CHANNELS 3 Xrotation Yrotation Zrotation
                End Site
                {
                    OFFSET   0.000000   0.192650   0.000000
                }
            }
            JOINT rTorso_Clavicle
            {
                OFFSET  -0.001000   0.157500   0.000000
                CHANNELS 3 Xrotation Yrotation Zrotation
                JOINT rShoulder
                {
                    OFFSET  -0.117647   0.000000   0.000000
                    CHANNELS 3 Xrotation Yrotation Zrotation
                    JOINT rElbow
                    {
                        OFFSET  -0.245000   0.000000   0.000000
                        CHANNELS 3 Xrotation Yrotation Zrotation
                        JOINT rWrist
                        {
                            OFFSET  -0.240000   0.000000   0.000000
                            CHANNELS 3 Xrotation Yrotation Zrotation
                            End Site
                            {
                                OFFSET  -0.116353  -0.002500   0.000000
                            }
                        }
                    }
                }
            }
            JOINT lTorso_Clavicle
            {
                OFFSET   0.001000   0.157500   0.000000
                CHANNELS 3 Xrotation Yrotation Zrotation
                JOINT lShoulder
                {
                    OFFSET   0.117647   0.000000   0.000000
                    CHANNELS 3 Xrotation Yrotation Zrotation
                    JOINT lElbow
                    {
                        OFFSET   0.245000   0.000000   0.000000
                        CHANNELS 3 Xrotation Yrotation Zrotation
                        JOINT lWrist
                        {
                            OFFSET   0.240000   0.000000   0.000000
                            CHANNELS 3 Xrotation Yrotation Zrotation
                            End Site
                            {
                                OFFSET   0.116353  -0.002500   0.000000
                            }
                        }
                    }
                }
            }
        }
    }
    JOINT rHip
    {
        OFFSET  -0.100000  -0.051395   0.000000
        CHANNELS 3 Xrotation Yrotation Zrotation
        JOINT rKnee
        {
            OFFSET   0.000000  -0.410000   0.000000
            CHANNELS 3 Xrotation Yrotation Zrotation
            JOINT rAnkle
            {
                OFFSET   0.000000  -0.390000   0.000000
                CHANNELS 3 Xrotation Yrotation Zrotation
                JOINT rToeJoint
                {
                    OFFSET   0.000000  -0.050000   0.130000
                    CHANNELS 3 Xrotation Yrotation Zrotation
                    End Site
                    {
                        OFFSET  -0.010000   0.002000   0.060000
                    }
                }
            }
        }
    }
    JOINT lHip
    {
        OFFSET   0.100000  -0.051395   0.000000
        CHANNELS 3 Xrotation Yrotation Zrotation
        JOINT lKnee
        {
            OFFSET   0.000000  -0.410000   0.000000
            CHANNELS 3 Xrotation Yrotation Zrotation
            JOINT lAnkle
            {
                OFFSET   0.000000  -0.390000   0.000000
                CHANNELS 3 Xrotation Yrotation Zrotation
                JOINT lToeJoint
                {
                    OFFSET   0.000000  -0.050000   0.130000
                    CHANNELS 3 Xrotation Yrotation Zrotation
                    End Site
                    {
                        OFFSET   0.010000   0.002000   0.060000
                    }
                }
            }
        }
    }
}
MOTION
Frames: 7
Frame Time:   0.008333
 -3.409706   0.839123   5.726624   4.997993 -34.700181  -1.724516  33.492789  -5.195021  -7.713200  -0.075315  -8.576386  -4.787532  -2.236631   7.138188  -4.523492   0.263386   3.852457  -5.591609  14.708401   1.219208  34.467410  -0.005460  47.761499  -0.001851  -1.222828   2.896228   6.145451 -11.774252 -24.298857   8.889477 -40.057186 -14.822316 -10.679136  -0.007141 -31.729744   0.000922  -4.505101  -1.144101  11.951697 -27.712609 -13.513591  -6.587380  49.243560  -0.000199   0.000950 -25.199212  -7.368123  -1.832962   0.487309   0.000261   0.000144 -41.470297  -1.790011  25.758244  34.312114  -0.004006   0.017754  -4.684651   4.167679  -3.523712  -1.572268   0.001262  -0.003443
 -3.409150   0.838249   5.731203   4.947135 -35.000282  -2.014894  33.688758  -5.025557  -7.766313  -0.066075  -8.502050  -4.806193  -2.118681   7.122469  -4.454020   0.210188   3.802671  -5.738459  14.485774   0.961356  34.374374  -0.007394  48.258406   0.000567  -1.216282   2.929986   6.160435 -11.592456 -24.021977   8.909619 -39.871031 -14.409808 -10.599049  -0.006146 -31.582426   0.000315  -4.522362  -0.918341  11.977637 -27.422895 -13.320175  -6.426062  49.269975  -0.000109   0.000724 -25.390727  -7.324482  -1.738040   0.583715   0.000349   0.000111 -41.661276  -1.861627  25.826583  33.918907  -0.004198   0.014820  -4.360364   4.069210  -3.498763  -1.477824   0.001235  -0.002984
 -3.408485   0.837205   5.736088   4.872214 -35.280005  -2.323441  33.868551  -4.846227  -7.793558  -0.051798  -8.419968  -4.801069  -1.999491   7.107209  -4.374338   0.152254   3.746002  -5.905271  14.270950   0.705221  34.259141  -0.008864  48.719145   0.002484  -1.212589   2.961154   6.075115 -11.422567 -23.743034   8.925210 -39.692993 -14.017622 -10.521243  -0.005239 -31.448472  -0.000134  -4.524276  -0.734049  11.957359 -27.121591 -13.121637  -6.288634  49.335859   0.000055   0.000492 -25.616241  -7.294839  -1.651841   0.675861   0.000438   0.000084 -41.827786  -1.906410  25.858175  33.657699  -0.004107   0.012224  -4.049919   3.977900  -3.475340  -1.372589   0.001271  -0.002609
 -3.407735   0.836052   5.741221   4.806444 -35.543988  -2.639616  34.019646  -4.661989  -7.799108  -0.049103  -8.330311  -4.781380  -1.887834   7.093453  -4.293542   0.095598   3.692294  -6.073685  14.067839   0.462241  34.139637  -0.009835  49.147354   0.003918  -1.207991   2.983181   5.951871 -11.268909 -23.471983   8.938808 -39.527850 -13.647357 -10.444249  -0.004422 -31.323181  -0.000437  -4.523973  -0.562886  11.937253 -26.825521 -12.930595  -6.162593  49.414590   0.000225   0.000286 -25.857833  -7.269549  -1.570858   0.764019   0.000520   0.000062 -41.968969  -1.934464  25.867060  33.436609  -0.003970   0.010081  -3.758568   3.892657  -3.453214  -1.271791   0.001310  -0.002285
 -3.406906   0.834817   5.746571   4.759557 -35.793887  -2.959612  34.141664  -4.475243  -7.789114  -0.061698  -8.235125  -4.749502  -1.784780   7.081010  -4.214541   0.041075   3.644078  -6.235163  13.876183   0.235608  34.023162  -0.010385  49.546647   0.004949  -1.203110   3.001470   5.818145 -11.131213 -23.212550   8.954538 -39.375959 -13.300912 -10.367114  -0.003694 -31.206450  -0.000620  -4.523077  -0.401004  11.928346 -26.538393 -12.750591  -6.043628  49.494670   0.000374   0.000115 -26.107628  -7.246053  -1.493294   1.227888   0.001386   0.000017 -42.088801  -1.950795  25.859395  33.237344  -0.003829   0.008333  -3.486134   3.813045  -3.432255  -1.177637   0.001338  -0.002004
 -3.405996   0.833513   5.752120   4.734629 -36.030706  -3.281160  34.236532  -4.287790  -7.767793  -0.089442  -8.136239  -4.707185  -1.689969   7.069714  -4.138627  -0.011062   3.601938  -6.386228  13.695486   0.025911  33.912795  -0.010604  49.919692   0.005652  -1.198505   3.020288   5.685074 -11.008517 -22.966398   8.974656 -39.236915 -12.978901 -10.289457  -0.003051 -31.098337  -0.000712  -4.521358  -0.250262  11.932590 -26.261064 -12.582296  -5.930584  49.570472   0.000491  -0.000021 -26.361765  -7.223543  -1.419814   1.235700   0.001126   0.000013 -42.190228  -1.957885  25.838336  33.055492  -0.003686   0.006909  -3.231604   3.738685  -3.412405  -1.090335   0.001353  -0.001760
 -3.405003   0.832147   5.757855   4.732667 -36.255304  -3.602698  34.306542  -4.101048  -7.737756  -0.131145  -8.035177  -4.655929  -1.602812   7.059441  -4.066362  -0.060712   3.565684  -6.525891  13.525260  -0.167385  33.809631  -0.010571  50.268545   0.006092  -1.194416   3.041668   5.557273 -10.899608 -22.734111   9.000094 -39.109999 -12.680936 -10.211274  -0.002492 -30.998675  -0.000737  -4.518482  -0.112408  11.949600 -25.993753 -12.425278  -5.823366  49.638922   0.000573  -0.000123 -26.617699  -7.201875  -1.349968   1.257822   0.000954   0.000008 -42.275392  -1.957256  25.806171  32.889336  -0.003539   0.005747  -2.993854   3.669223  -3.393626  -1.009600   0.001353  -0.001548
